<svg width="34" height="34" viewBox="0 0 34 34" fill="none" xmlns="http://www.w3.org/2000/svg">
<path d="M19.0597 10.5612C19.359 10.2762 19.7574 10.1187 20.1707 10.1218C20.584 10.1249 20.9799 10.2885 21.2749 10.578C21.5699 10.8675 21.7409 11.2602 21.7518 11.6734C21.7627 12.0866 21.6127 12.4878 21.3334 12.7925L12.8547 23.3962C12.7089 23.5533 12.5329 23.6793 12.3373 23.7667C12.1417 23.8542 11.9305 23.9014 11.7162 23.9053C11.502 23.9093 11.2891 23.87 11.0904 23.7898C10.8917 23.7097 10.7112 23.5902 10.5597 23.4387L4.93694 17.816C4.78036 17.6701 4.65477 17.4941 4.56766 17.2986C4.48055 17.1031 4.43371 16.8921 4.42994 16.6781C4.42616 16.4641 4.46552 16.2515 4.54568 16.0531C4.62584 15.8546 4.74515 15.6744 4.89649 15.523C5.04783 15.3717 5.2281 15.2524 5.42655 15.1722C5.625 15.0921 5.83756 15.0527 6.05155 15.0565C6.26555 15.0602 6.47659 15.1071 6.67209 15.1942C6.86758 15.2813 7.04354 15.4069 7.18944 15.5635L11.6392 20.0111L19.0172 10.608C19.0304 10.5916 19.0446 10.576 19.0597 10.5612ZM17.1047 21.4837L19.0597 23.4387C19.2112 23.5899 19.3915 23.7091 19.5901 23.789C19.7886 23.869 20.0012 23.9082 20.2151 23.9042C20.4291 23.9003 20.6401 23.8532 20.8355 23.7659C21.031 23.6787 21.2068 23.5529 21.3526 23.3962L29.8356 12.7925C29.988 12.642 30.1085 12.4624 30.1899 12.2644C30.2713 12.0663 30.312 11.8539 30.3095 11.6397C30.307 11.4256 30.2614 11.2142 30.1753 11.0181C30.0893 10.822 29.9647 10.6452 29.8088 10.4984C29.653 10.3515 29.4691 10.2376 29.2682 10.1634C29.0674 10.0891 28.8536 10.0562 28.6397 10.0664C28.4258 10.0766 28.2162 10.1299 28.0233 10.2229C27.8305 10.316 27.6583 10.4469 27.5172 10.608L20.1371 20.0111L19.1064 18.9783L17.1026 21.4837H17.1047Z" fill="#5576C0"/>
</svg>
