<svg width="1920" height="1041" viewBox="0 0 1920 1041" fill="none" xmlns="http://www.w3.org/2000/svg">
<mask id="mask0_764_1259" style="mask-type:alpha" maskUnits="userSpaceOnUse" x="0" y="0" width="1920" height="1041">
<rect width="1920" height="1041" fill="#FFEEEE"/>
</mask>
<g mask="url(#mask0_764_1259)">
<path d="M2337.7 157.177C2312.19 104.932 2069.63 -92.3503 1706.07 144.277C1342.51 380.904 1064.31 607.284 569.213 489.261C74.1201 371.237 -288.388 383.655 -580.003 557.266" stroke="#D3D9E7"/>
<path d="M2366.6 172.629C2341.09 120.384 2098.52 -76.8981 1734.96 159.729C1371.41 396.356 1093.2 622.737 598.107 504.713C103.015 386.689 -259.493 399.108 -551.109 572.718" stroke="#D3D9E7"/>
<path d="M2395.49 188.083C2369.98 135.838 2127.41 -61.444 1763.85 175.183C1400.3 411.81 1122.09 638.191 626.998 520.167C131.905 402.143 -230.603 414.562 -522.218 588.172" stroke="#D3D9E7"/>
<path d="M2424.38 203.536C2398.87 151.29 2156.3 -45.9919 1792.74 190.635C1429.19 427.262 1150.98 653.643 655.889 535.619C160.796 417.595 -201.712 430.014 -493.328 603.625" stroke="#D3D9E7"/>
<path d="M2453.26 218.986C2427.76 166.741 2185.19 -30.5412 1821.63 206.086C1458.07 442.713 1179.87 669.093 684.775 551.07C189.683 433.046 -172.825 445.464 -464.441 619.075" stroke="#D3D9E7"/>
<path d="M2482.15 234.438C2456.65 182.193 2214.08 -15.089 1850.52 221.538C1486.96 458.165 1208.76 684.546 713.666 566.522C218.573 448.498 -143.935 460.917 -435.55 634.527" stroke="#D3D9E7"/>
<path d="M2511.05 249.895C2485.54 197.649 2242.97 0.367515 1879.42 236.995C1515.86 473.622 1237.65 700.002 742.56 581.978C247.468 463.955 -115.04 476.373 -406.656 649.984" stroke="#D3D9E7"/>
<path d="M2539.93 265.345C2514.43 213.1 2271.86 15.8177 1908.3 252.445C1544.74 489.072 1266.54 715.452 771.443 597.429C276.351 479.405 -86.1573 491.823 -377.773 665.434" stroke="#D3D9E7"/>
<path d="M2568.83 280.799C2543.32 228.553 2300.75 31.2713 1937.19 267.898C1573.64 504.525 1295.43 730.906 800.338 612.882C305.245 494.858 -57.2628 507.277 -348.878 680.888" stroke="#D3D9E7"/>
<path d="M2597.63 296.155C2572.13 243.909 2329.56 46.6273 1966 283.254C1602.44 519.881 1324.24 746.262 829.146 628.238C334.054 510.214 -28.4542 522.633 -320.07 696.244" stroke="#D3D9E7"/>
<path d="M2626.52 311.605C2601.02 259.36 2358.45 62.078 1994.89 298.705C1631.33 535.332 1353.13 761.713 858.033 643.689C362.94 525.665 0.432562 538.084 -291.183 711.694" stroke="#D3D9E7"/>
<path d="M2655.42 327.058C2629.91 274.812 2387.34 77.5306 2023.78 314.158C1660.23 550.785 1382.02 777.165 886.928 659.141C391.835 541.118 29.3271 553.536 -262.288 727.147" stroke="#D3D9E7"/>
<path d="M2684.31 342.512C2658.8 290.267 2416.23 92.9847 2052.67 329.612C1689.12 566.239 1410.91 792.619 915.818 674.596C420.726 556.572 58.2177 568.99 -233.398 742.601" stroke="#D3D9E7"/>
<path d="M2713.2 357.963C2687.69 305.718 2445.12 108.436 2081.56 345.063C1718.01 581.69 1439.8 808.071 944.709 690.047C449.616 572.023 87.1083 584.442 -204.507 758.052" stroke="#D3D9E7"/>
<path d="M2742.08 373.417C2716.58 321.171 2474.01 123.889 2110.45 360.517C1746.89 597.144 1468.69 823.524 973.596 705.5C478.503 587.477 115.995 599.895 -175.62 773.506" stroke="#D3D9E7"/>
<path d="M2770.98 388.87C2745.47 336.624 2502.9 139.343 2139.35 375.97C1775.79 612.597 1497.58 838.977 1002.49 720.953C507.397 602.93 144.89 615.348 -146.726 788.959" stroke="#D3D9E7"/>
<path d="M2799.86 404.322C2774.36 352.076 2531.79 154.795 2168.23 391.422C1804.67 628.049 1526.47 854.429 1031.38 736.405C536.284 618.382 173.776 630.8 -117.839 804.411" stroke="#D3D9E7"/>
<path d="M2828.76 419.774C2803.25 367.529 2560.68 170.247 2197.13 406.874C1833.57 643.501 1555.36 869.882 1060.27 751.858C565.179 633.834 202.671 646.253 -88.9447 819.863" stroke="#D3D9E7"/>
<path d="M2857.65 435.227C2832.14 382.982 2589.57 185.7 2226.02 422.327C1862.46 658.954 1584.25 885.334 1089.16 767.311C594.069 649.287 231.561 661.705 -60.0541 835.316" stroke="#D3D9E7"/>
<path d="M2886.54 450.68C2861.03 398.434 2618.47 201.152 2254.91 437.779C1891.35 674.406 1613.15 900.787 1118.05 782.763C622.96 664.739 260.452 677.158 -31.1635 850.769" stroke="#D3D9E7"/>
<path d="M2915.43 466.132C2889.93 413.887 2647.36 216.605 2283.8 453.232C1920.24 689.859 1642.04 916.239 1146.94 798.216C651.851 680.192 289.343 692.61 -2.27284 866.221" stroke="#D3D9E7"/>
<path d="M2944.32 481.583C2918.81 429.338 2676.24 232.056 2312.69 468.683C1949.13 705.31 1670.92 931.691 1175.83 813.667C680.737 695.643 318.229 708.062 26.6139 881.672" stroke="#D3D9E7"/>
</g>
</svg>
